<svg width="74" height="29" viewBox="0 0 74 29" fill="none" xmlns="http://www.w3.org/2000/svg">
<path d="M59.5 17.0375C58.1406 17.0375 56.9625 15.95 56.9625 14.5C56.9625 13.1406 58.05 11.9625 59.5 11.9625C60.8594 11.9625 62.0375 13.05 62.0375 14.5C62.0375 15.8594 60.8594 17.0375 59.5 17.0375Z" fill="white"/>
<path fill-rule="evenodd" clip-rule="evenodd" d="M62.5812 8.3375H56.4188C55.6938 8.42812 55.3313 8.51875 55.0594 8.60937C54.6969 8.7 54.425 8.88125 54.1531 9.15312C53.938 9.36825 53.8363 9.58339 53.7135 9.84342C53.6811 9.91195 53.6472 9.98378 53.6094 10.0594C53.5954 10.1014 53.5792 10.1457 53.5618 10.1931C53.467 10.4521 53.3375 10.8059 53.3375 11.4187V17.5812C53.4281 18.3062 53.5187 18.6687 53.6094 18.9406C53.7 19.3031 53.8813 19.575 54.1531 19.8469C54.3683 20.062 54.5834 20.1636 54.8434 20.2865C54.912 20.3189 54.9837 20.3528 55.0594 20.3906C55.1014 20.4046 55.1457 20.4208 55.1931 20.4382C55.4521 20.533 55.8059 20.6625 56.4188 20.6625H62.5812C63.3062 20.5719 63.6688 20.4812 63.9406 20.3906C64.3031 20.3 64.575 20.1187 64.8469 19.8469C65.062 19.6317 65.1636 19.4166 65.2865 19.1566C65.3189 19.088 65.3528 19.0163 65.3906 18.9406C65.4046 18.8986 65.4208 18.8543 65.4382 18.8069C65.533 18.5479 65.6625 18.1941 65.6625 17.5812V11.4187C65.5719 10.6937 65.4813 10.3312 65.3906 10.0594C65.3 9.69687 65.1187 9.425 64.8469 9.15312C64.6317 8.93799 64.4166 8.83635 64.1566 8.71349C64.0881 8.68113 64.0162 8.64714 63.9406 8.60937C63.8986 8.59535 63.8543 8.57916 63.8069 8.56181C63.5479 8.46701 63.1941 8.3375 62.5812 8.3375ZM59.5 10.6031C57.325 10.6031 55.6031 12.325 55.6031 14.5C55.6031 16.675 57.325 18.3969 59.5 18.3969C61.675 18.3969 63.3969 16.675 63.3969 14.5C63.3969 12.325 61.675 10.6031 59.5 10.6031ZM64.3937 10.5125C64.3937 11.013 63.988 11.4187 63.4875 11.4187C62.987 11.4187 62.5812 11.013 62.5812 10.5125C62.5812 10.012 62.987 9.60625 63.4875 9.60625C63.988 9.60625 64.3937 10.012 64.3937 10.5125Z" fill="white"/>
<path fill-rule="evenodd" clip-rule="evenodd" d="M45 14.5C45 6.49187 51.4919 0 59.5 0C67.5081 0 74 6.49187 74 14.5C74 22.5081 67.5081 29 59.5 29C51.4919 29 45 22.5081 45 14.5ZM56.4188 6.97812H62.5812C63.3969 7.06875 63.9406 7.15937 64.3937 7.34062C64.9375 7.6125 65.3 7.79375 65.7531 8.24687C66.2062 8.7 66.4781 9.15312 66.6594 9.60625C66.8406 10.0594 67.0219 10.6031 67.0219 11.4187V17.5812C66.9312 18.3969 66.8406 18.9406 66.6594 19.3937C66.3875 19.9375 66.2062 20.3 65.7531 20.7531C65.3 21.2062 64.8469 21.4781 64.3937 21.6594C63.9406 21.8406 63.3969 22.0219 62.5812 22.0219H56.4188C55.6031 21.9312 55.0594 21.8406 54.6063 21.6594C54.0625 21.3875 53.7 21.2062 53.2469 20.7531C52.7938 20.3 52.5219 19.8469 52.3406 19.3937C52.1594 18.9406 51.9781 18.3969 51.9781 17.5812V11.4187C52.0687 10.6031 52.1594 10.0594 52.3406 9.60625C52.6125 9.0625 52.7938 8.7 53.2469 8.24687C53.7 7.79375 54.1531 7.52187 54.6063 7.34062C55.0594 7.15937 55.6031 6.97812 56.4188 6.97812Z" fill="white"/>
<path fill-rule="evenodd" clip-rule="evenodd" d="M0 14.5C0 6.49187 6.49187 0 14.5 0C22.5081 0 29 6.49187 29 14.5C29 22.5081 22.5081 29 14.5 29C6.49187 29 0 22.5081 0 14.5ZM14.5 7.25C18.4875 7.25 21.75 10.5125 21.75 14.5C21.75 18.125 19.1219 21.2062 15.4969 21.75V16.5844H17.2188L17.5812 14.5H15.5875V13.1406C15.5875 12.5969 15.8594 12.0531 16.7656 12.0531H17.6719V10.2406C17.6719 10.2406 16.8563 10.0594 16.0406 10.0594C14.4094 10.0594 13.3219 11.0562 13.3219 12.8687V14.5H11.5094V16.5844H13.3219V21.6594C9.87812 21.1156 7.25 18.125 7.25 14.5C7.25 10.5125 10.5125 7.25 14.5 7.25Z" fill="white"/>
</svg>
