<svg width="40" height="40" viewBox="0 0 40 40" fill="none" xmlns="http://www.w3.org/2000/svg">
<circle cx="20" cy="20" r="20" fill="#F2F2F2"/>
<path d="M23.6 25.6H18.8M15.2 25.6H12.8M8.01326 17.2C8 17.8924 8 18.6838 8 19.6C8 22.9603 8 24.6405 8.65396 25.9239C9.2292 27.0529 10.1471 27.9708 11.2761 28.546C12.5595 29.2 14.2397 29.2 17.6 29.2H22.4C25.7603 29.2 27.4405 29.2 28.7239 28.546C29.8529 27.9708 30.7708 27.0529 31.346 25.9239C32 24.6405 32 22.9603 32 19.6C32 18.6838 32 17.8924 31.9867 17.2M8.01326 17.2C8.04862 15.3529 8.17831 14.2096 8.65396 13.2761C9.2292 12.1471 10.1471 11.2292 11.2761 10.654C12.5595 10 14.2397 10 17.6 10H22.4C25.7603 10 27.4405 10 28.7239 10.654C29.8529 11.2292 30.7708 12.1471 31.346 13.2761C31.8217 14.2096 31.9514 15.3529 31.9867 17.2M8.01326 17.2H31.9867" stroke="#383838" stroke-width="1.5" stroke-linecap="round"/>
</svg>
