<svg width="40" height="40" viewBox="0 0 40 40" fill="none" xmlns="http://www.w3.org/2000/svg">
<circle cx="20" cy="20" r="20" fill="#F2F2F2"/>
<path d="M14.9447 27.9119L15.4175 28.7225C17.5451 32.3698 21.8003 32.3698 23.9279 28.7225L24.4007 27.9119M10.4328 25.0156L10.555 25.2674C11.3396 26.8849 12.9793 27.9119 14.777 27.9119H24.4939C26.0344 27.9119 27.4682 27.1249 28.2953 25.8253C29.4629 23.9908 29.1536 21.5841 27.5602 20.1043L27.5083 20.0561C26.4265 19.0514 25.8939 17.5877 26.077 16.1227L26.1534 15.5117C26.5856 12.054 23.8895 9 20.405 9H18.3921C14.9118 9 12.219 12.0503 12.6507 15.5037L12.7445 16.2541C12.9173 17.636 12.4125 19.0164 11.389 19.9608C9.99104 21.2508 9.60264 23.3041 10.4328 25.0156Z" stroke="#383838" stroke-width="1.5" stroke-linecap="round"/>
</svg>
