<svg width="40" height="40" viewBox="0 0 40 40" fill="none" xmlns="http://www.w3.org/2000/svg">
<circle cx="20" cy="20" r="20" fill="#F2F2F2"/>
<path d="M24.3563 16.7H15.6437M15.6437 13.491V13.4C15.6437 10.9699 17.5941 9 20 9C22.4059 9 24.3563 10.9699 24.3563 13.4V13.491M15.6437 13.491C16.5005 13.4 17.5923 13.4 19.1156 13.4H20.8844C22.4077 13.4 23.4995 13.4 24.3563 13.491M15.6437 13.491C14.988 13.5606 14.4699 13.6834 14.0015 13.9003C13.0493 14.3412 12.2432 15.0501 11.6799 15.942C11.0406 16.9542 10.8557 18.2993 10.4857 20.9894C10.0107 24.4439 9.77319 26.1711 10.2954 27.5126C10.7539 28.6903 11.6005 29.6723 12.6923 30.293C13.936 31 15.6625 31 19.1156 31H20.8844C24.3375 31 26.064 31 27.3077 30.293C28.3995 29.6723 29.2461 28.6903 29.7046 27.5126C30.2268 26.1711 29.9893 24.4439 29.5143 20.9894C29.1443 18.2993 28.9594 16.9542 28.3201 15.942C27.7568 15.0501 26.9507 14.3412 25.9985 13.9003C25.5301 13.6834 25.012 13.5606 24.3563 13.491" stroke="#383838" stroke-width="1.5" stroke-linecap="round"/>
</svg>
