<svg width="432" height="48" viewBox="0 0 432 48" fill="none" xmlns="http://www.w3.org/2000/svg">
<rect x="384.5" y="0.5" width="47" height="47" rx="9.5" fill="white" stroke="#ECECEC"/>
<path d="M404.35 28.4571L408.78 24L404.262 19.5429C403.913 19.2 403.913 18.6 404.262 18.2571C404.612 17.9143 405.225 17.9143 405.575 18.2571L410.737 23.3143C410.912 23.4857 411 23.7429 411 24C411 24.2571 410.913 24.5143 410.825 24.6857L405.662 29.7429C405.312 30.0857 404.7 30.0857 404.35 29.7429C404 29.4 404 28.8 404.35 28.4571Z" fill="#383838"/>
<rect x="320.5" y="0.5" width="47" height="47" rx="9.5" fill="white" stroke="#ECECEC"/>
<path d="M341.969 30H339.555V23.3906L339.578 22.3047L339.617 21.1172C339.216 21.5182 338.938 21.7812 338.781 21.9062L337.469 22.9609L336.305 21.5078L339.984 18.5781H341.969V30ZM353.125 30H345.141V28.3203L348.008 25.4219C348.857 24.5521 349.411 23.9505 349.672 23.6172C349.932 23.2786 350.12 22.9661 350.234 22.6797C350.349 22.3932 350.406 22.0964 350.406 21.7891C350.406 21.3307 350.279 20.9896 350.023 20.7656C349.773 20.5417 349.438 20.4297 349.016 20.4297C348.573 20.4297 348.143 20.5312 347.727 20.7344C347.31 20.9375 346.875 21.2266 346.422 21.6016L345.109 20.0469C345.672 19.5677 346.138 19.2292 346.508 19.0312C346.878 18.8333 347.281 18.6823 347.719 18.5781C348.156 18.4688 348.646 18.4141 349.188 18.4141C349.901 18.4141 350.531 18.5443 351.078 18.8047C351.625 19.0651 352.049 19.4297 352.352 19.8984C352.654 20.3672 352.805 20.9036 352.805 21.5078C352.805 22.0339 352.711 22.5286 352.523 22.9922C352.341 23.4505 352.055 23.9219 351.664 24.4062C351.279 24.8906 350.596 25.5807 349.617 26.4766L348.148 27.8594V27.9688H353.125V30Z" fill="#383838"/>
<rect x="256.5" y="0.5" width="47" height="47" rx="9.5" fill="white" stroke="#ECECEC"/>
<path d="M274.07 24.8828C274.07 24.4453 274.188 24.1146 274.422 23.8906C274.656 23.6667 274.997 23.5547 275.445 23.5547C275.878 23.5547 276.211 23.6693 276.445 23.8984C276.685 24.1276 276.805 24.4557 276.805 24.8828C276.805 25.2943 276.685 25.6198 276.445 25.8594C276.206 26.0938 275.872 26.2109 275.445 26.2109C275.008 26.2109 274.669 26.0964 274.43 25.8672C274.19 25.6328 274.07 25.3047 274.07 24.8828ZM278.633 24.8828C278.633 24.4453 278.75 24.1146 278.984 23.8906C279.219 23.6667 279.56 23.5547 280.008 23.5547C280.44 23.5547 280.773 23.6693 281.008 23.8984C281.247 24.1276 281.367 24.4557 281.367 24.8828C281.367 25.2943 281.247 25.6198 281.008 25.8594C280.768 26.0938 280.435 26.2109 280.008 26.2109C279.57 26.2109 279.232 26.0964 278.992 25.8672C278.753 25.6328 278.633 25.3047 278.633 24.8828ZM283.195 24.8828C283.195 24.4453 283.312 24.1146 283.547 23.8906C283.781 23.6667 284.122 23.5547 284.57 23.5547C285.003 23.5547 285.336 23.6693 285.57 23.8984C285.81 24.1276 285.93 24.4557 285.93 24.8828C285.93 25.2943 285.81 25.6198 285.57 25.8594C285.331 26.0938 284.997 26.2109 284.57 26.2109C284.133 26.2109 283.794 26.0964 283.555 25.8672C283.315 25.6328 283.195 25.3047 283.195 24.8828Z" fill="#383838"/>
<rect x="192.5" y="0.5" width="47" height="47" rx="9.5" fill="white" stroke="#ECECEC"/>
<path d="M219.609 21.1328C219.609 21.8464 219.393 22.4531 218.961 22.9531C218.529 23.4531 217.922 23.7969 217.141 23.9844V24.0312C218.062 24.1458 218.76 24.4271 219.234 24.875C219.708 25.3177 219.945 25.9167 219.945 26.6719C219.945 27.7708 219.547 28.6276 218.75 29.2422C217.953 29.8516 216.815 30.1562 215.336 30.1562C214.096 30.1562 212.997 29.9505 212.039 29.5391V27.4844C212.482 27.7083 212.969 27.8906 213.5 28.0312C214.031 28.1719 214.557 28.2422 215.078 28.2422C215.875 28.2422 216.464 28.1068 216.844 27.8359C217.224 27.5651 217.414 27.1302 217.414 26.5312C217.414 25.9948 217.195 25.6146 216.758 25.3906C216.32 25.1667 215.622 25.0547 214.664 25.0547H213.797V23.2031H214.68C215.565 23.2031 216.211 23.0885 216.617 22.8594C217.029 22.625 217.234 22.2266 217.234 21.6641C217.234 20.7995 216.693 20.3672 215.609 20.3672C215.234 20.3672 214.852 20.4297 214.461 20.5547C214.076 20.6797 213.646 20.8958 213.172 21.2031L212.055 19.5391C213.096 18.7891 214.339 18.4141 215.781 18.4141C216.964 18.4141 217.896 18.6536 218.578 19.1328C219.266 19.612 219.609 20.2786 219.609 21.1328Z" fill="#383838"/>
<rect x="128" width="48" height="48" rx="10" fill="#72BF44"/>
<path d="M156.055 30H148.07V28.3203L150.938 25.4219C151.786 24.5521 152.341 23.9505 152.602 23.6172C152.862 23.2786 153.049 22.9661 153.164 22.6797C153.279 22.3932 153.336 22.0964 153.336 21.7891C153.336 21.3307 153.208 20.9896 152.953 20.7656C152.703 20.5417 152.367 20.4297 151.945 20.4297C151.503 20.4297 151.073 20.5312 150.656 20.7344C150.24 20.9375 149.805 21.2266 149.352 21.6016L148.039 20.0469C148.602 19.5677 149.068 19.2292 149.438 19.0312C149.807 18.8333 150.211 18.6823 150.648 18.5781C151.086 18.4688 151.576 18.4141 152.117 18.4141C152.831 18.4141 153.461 18.5443 154.008 18.8047C154.555 19.0651 154.979 19.4297 155.281 19.8984C155.583 20.3672 155.734 20.9036 155.734 21.5078C155.734 22.0339 155.641 22.5286 155.453 22.9922C155.271 23.4505 154.984 23.9219 154.594 24.4062C154.208 24.8906 153.526 25.5807 152.547 26.4766L151.078 27.8594V27.9688H156.055V30Z" fill="white"/>
<rect x="64.5" y="0.5" width="47" height="47" rx="9.5" fill="white" stroke="#ECECEC"/>
<path d="M90.0391 30H87.625V23.3906L87.6484 22.3047L87.6875 21.1172C87.2865 21.5182 87.0078 21.7812 86.8516 21.9062L85.5391 22.9609L84.375 21.5078L88.0547 18.5781H90.0391V30Z" fill="#383838"/>
<rect x="0.5" y="0.5" width="47" height="47" rx="9.5" fill="white" stroke="#ECECEC"/>
<path d="M26.65 28.4571L22.2201 24L26.7375 19.5429C27.0875 19.2 27.0875 18.6 26.7375 18.2571C26.3875 17.9143 25.775 17.9143 25.425 18.2571L20.2625 23.3143C20.0875 23.4857 20 23.7429 20 24C20 24.2571 20.0875 24.5143 20.175 24.6857L25.3375 29.7429C25.6875 30.0857 26.3 30.0857 26.65 29.7429C27 29.4 27 28.8 26.65 28.4571Z" fill="#383838"/>
</svg>
