<svg width="158" height="58" viewBox="0 0 158 58" fill="none" xmlns="http://www.w3.org/2000/svg">
<rect width="158" height="58" rx="8" fill="#72BF44"/>
<path d="M65.9155 35H63.583L58.5859 28.8491V35H56.6021V22.8643H58.5859V28.7412L63.5 22.8643H65.6748L60.7773 28.7246L65.9155 35ZM73.0625 35L72.6724 33.7217H72.606C72.1632 34.2806 71.7178 34.6624 71.2695 34.8672C70.8213 35.0664 70.2458 35.166 69.543 35.166C68.641 35.166 67.9354 34.9225 67.4263 34.4355C66.9227 33.9486 66.6709 33.2596 66.6709 32.3687C66.6709 31.4224 67.0223 30.7085 67.7251 30.2271C68.4279 29.7456 69.4987 29.4827 70.9375 29.4385L72.5229 29.3887V28.8989C72.5229 28.3123 72.3846 27.8752 72.1079 27.5874C71.8368 27.2941 71.4134 27.1475 70.8379 27.1475C70.3675 27.1475 69.9165 27.2166 69.4849 27.355C69.0532 27.4933 68.6382 27.6566 68.2397 27.8447L67.6089 26.4502C68.1069 26.1901 68.652 25.9937 69.2441 25.8608C69.8363 25.7225 70.3952 25.6533 70.9209 25.6533C72.0885 25.6533 72.9684 25.9079 73.5605 26.417C74.1582 26.9261 74.457 27.7257 74.457 28.8159V35H73.0625ZM70.1572 33.6719C70.8656 33.6719 71.4328 33.4754 71.8589 33.0825C72.2905 32.6841 72.5063 32.1279 72.5063 31.4141V30.6172L71.3276 30.667C70.409 30.7002 69.7394 30.8551 69.3188 31.1318C68.9038 31.403 68.6963 31.8208 68.6963 32.3853C68.6963 32.7948 68.818 33.113 69.0615 33.3398C69.305 33.5612 69.6702 33.6719 70.1572 33.6719ZM84.0776 25.8193V27.3467H81.0894V35H79.1304V27.3467H76.1421V25.8193H84.0776ZM91.5898 35L91.1997 33.7217H91.1333C90.6906 34.2806 90.2451 34.6624 89.7969 34.8672C89.3486 35.0664 88.7731 35.166 88.0703 35.166C87.1683 35.166 86.4627 34.9225 85.9536 34.4355C85.45 33.9486 85.1982 33.2596 85.1982 32.3687C85.1982 31.4224 85.5496 30.7085 86.2524 30.2271C86.9552 29.7456 88.026 29.4827 89.4648 29.4385L91.0503 29.3887V28.8989C91.0503 28.3123 90.9119 27.8752 90.6353 27.5874C90.3641 27.2941 89.9408 27.1475 89.3652 27.1475C88.8949 27.1475 88.4438 27.2166 88.0122 27.355C87.5806 27.4933 87.1655 27.6566 86.7671 27.8447L86.1362 26.4502C86.6343 26.1901 87.1794 25.9937 87.7715 25.8608C88.3636 25.7225 88.9225 25.6533 89.4482 25.6533C90.6159 25.6533 91.4958 25.9079 92.0879 26.417C92.6855 26.9261 92.9844 27.7257 92.9844 28.8159V35H91.5898ZM88.6846 33.6719C89.3929 33.6719 89.9601 33.4754 90.3862 33.0825C90.8179 32.6841 91.0337 32.1279 91.0337 31.4141V30.6172L89.855 30.667C88.9364 30.7002 88.2668 30.8551 87.8462 31.1318C87.4312 31.403 87.2236 31.8208 87.2236 32.3853C87.2236 32.7948 87.3454 33.113 87.5889 33.3398C87.8324 33.5612 88.1976 33.6719 88.6846 33.6719ZM103.252 35H101.285V27.3467H98.7534C98.5985 29.3167 98.3882 30.8551 98.1226 31.9619C97.8625 33.0687 97.5194 33.8766 97.0933 34.3857C96.6727 34.8949 96.1248 35.1494 95.4497 35.1494C95.0236 35.1494 94.6667 35.0885 94.3789 34.9668V33.4395C94.5837 33.5169 94.7884 33.5557 94.9932 33.5557C95.5576 33.5557 96.0003 32.922 96.3213 31.6548C96.6478 30.382 96.9023 28.4368 97.085 25.8193H103.252V35ZM114.193 30.3931C114.193 31.8927 113.808 33.0632 113.039 33.9043C112.27 34.7454 111.199 35.166 109.827 35.166C108.969 35.166 108.211 34.9723 107.552 34.585C106.894 34.1976 106.387 33.6414 106.033 32.9165C105.679 32.1916 105.502 31.3504 105.502 30.3931C105.502 28.9045 105.884 27.7424 106.647 26.9067C107.411 26.0711 108.487 25.6533 109.876 25.6533C111.205 25.6533 112.256 26.0822 113.031 26.9399C113.806 27.7922 114.193 28.9432 114.193 30.3931ZM107.511 30.3931C107.511 32.5125 108.294 33.5723 109.86 33.5723C111.409 33.5723 112.184 32.5125 112.184 30.3931C112.184 28.2957 111.404 27.2471 109.843 27.2471C109.024 27.2471 108.429 27.5182 108.059 28.0605C107.693 28.6029 107.511 29.3804 107.511 30.3931ZM122.377 25.8193V27.3467H118.393V35H116.442V25.8193H122.377Z" fill="white"/>
<path d="M37.8 28C37.8 28.7732 37.1732 29.4 36.4 29.4C35.6268 29.4 35 28.7732 35 28C35 27.2268 35.6268 26.6 36.4 26.6C37.1732 26.6 37.8 27.2268 37.8 28Z" stroke="white"/>
<path d="M43.4 28C43.4 28.7732 42.7732 29.4 42 29.4C41.2268 29.4 40.6 28.7732 40.6 28C40.6 27.2268 41.2268 26.6 42 26.6C42.7732 26.6 43.4 27.2268 43.4 28Z" stroke="white"/>
<path d="M49 28C49 28.7732 48.3732 29.4 47.6 29.4C46.8268 29.4 46.2 28.7732 46.2 28C46.2 27.2268 46.8268 26.6 47.6 26.6C48.3732 26.6 49 27.2268 49 28Z" stroke="white"/>
<path d="M37.8 22.4C37.8 23.1732 37.1732 23.8 36.4 23.8C35.6268 23.8 35 23.1732 35 22.4C35 21.6268 35.6268 21 36.4 21C37.1732 21 37.8 21.6268 37.8 22.4Z" stroke="white"/>
<path d="M43.4 22.4C43.4 23.1732 42.7732 23.8 42 23.8C41.2268 23.8 40.6 23.1732 40.6 22.4C40.6 21.6268 41.2268 21 42 21C42.7732 21 43.4 21.6268 43.4 22.4Z" stroke="white"/>
<path d="M49 22.4C49 23.1732 48.3732 23.8 47.6 23.8C46.8268 23.8 46.2 23.1732 46.2 22.4C46.2 21.6268 46.8268 21 47.6 21C48.3732 21 49 21.6268 49 22.4Z" stroke="white"/>
<path d="M37.8 33.6C37.8 34.3732 37.1732 35 36.4 35C35.6268 35 35 34.3732 35 33.6C35 32.8268 35.6268 32.2 36.4 32.2C37.1732 32.2 37.8 32.8268 37.8 33.6Z" stroke="white"/>
<path d="M43.4 33.6C43.4 34.3732 42.7732 35 42 35C41.2268 35 40.6 34.3732 40.6 33.6C40.6 32.8268 41.2268 32.2 42 32.2C42.7732 32.2 43.4 32.8268 43.4 33.6Z" stroke="white"/>
<path d="M49 33.6C49 34.3732 48.3732 35 47.6 35C46.8268 35 46.2 34.3732 46.2 33.6C46.2 32.8268 46.8268 32.2 47.6 32.2C48.3732 32.2 49 32.8268 49 33.6Z" stroke="white"/>
</svg>
