<svg width="37" height="40" viewBox="0 0 37 40" fill="none" xmlns="http://www.w3.org/2000/svg">
<path d="M33.2567 3.17428C29.7823 -0.368948 25.7589 1.12541 23.2677 2.70572C21.86 3.59866 19.9101 3.59866 18.5024 2.70572C16.0111 1.12543 11.9878 -0.368909 8.51338 3.17428C0.265551 11.5853 14.4099 27.7931 20.8851 27.7931C27.3603 27.7931 41.5046 11.5853 33.2567 3.17428Z" stroke="#383838" stroke-width="1.5" stroke-linecap="round"/>
<circle cx="11.5" cy="28.5" r="11.5" fill="#72BF44"/>
<path d="M14.0117 26.9368C14.0117 27.4798 13.8535 27.9329 13.5371 28.2962C13.2207 28.6556 12.7754 28.8978 12.2012 29.0228V29.0696C12.8887 29.1556 13.4043 29.3704 13.748 29.7142C14.0918 30.054 14.2637 30.5071 14.2637 31.0735C14.2637 31.8978 13.9727 32.5345 13.3906 32.9837C12.8086 33.429 11.9805 33.6517 10.9062 33.6517C9.95703 33.6517 9.15625 33.4974 8.50391 33.1888V31.9642C8.86719 32.1439 9.25195 32.2825 9.6582 32.3802C10.0645 32.4778 10.4551 32.5267 10.8301 32.5267C11.4941 32.5267 11.9902 32.4036 12.3184 32.1575C12.6465 31.9114 12.8105 31.5306 12.8105 31.015C12.8105 30.5579 12.6289 30.222 12.2656 30.0071C11.9023 29.7923 11.332 29.6849 10.5547 29.6849H9.81055V28.5657H10.5664C11.9336 28.5657 12.6172 28.0931 12.6172 27.1478C12.6172 26.7806 12.498 26.4974 12.2598 26.2982C12.0215 26.0989 11.6699 25.9993 11.2051 25.9993C10.8809 25.9993 10.5684 26.0462 10.2676 26.14C9.9668 26.2298 9.61133 26.4075 9.20117 26.6732L8.52734 25.7122C9.3125 25.1341 10.2246 24.845 11.2637 24.845C12.127 24.845 12.8008 25.0306 13.2852 25.4017C13.7695 25.7728 14.0117 26.2845 14.0117 26.9368Z" fill="white"/>
</svg>
