<svg width="38" height="40" viewBox="0 0 38 40" fill="none" xmlns="http://www.w3.org/2000/svg">
<path d="M4.7276 0.818082C4.62713 0.416238 4.21993 0.171926 3.81808 0.272397C3.41624 0.372868 3.17193 0.780075 3.2724 1.18192L4.7276 0.818082ZM11.3121 23.6858L11.7629 23.0864L11.3121 23.6858ZM7.10135 13.661L7.83069 13.4862L7.10135 13.661ZM11.0361 23.4681L11.5139 22.89L11.0361 23.4681ZM36.2506 14.414L36.9799 14.5888L36.2506 14.414ZM32.9833 23.0293L32.4579 22.4941L32.9833 23.0293ZM31.6801 24.057L32.0781 24.6927L31.6801 24.057ZM36.1323 8.29728L36.647 7.75182L36.1323 8.29728ZM36.6873 9.00104L37.3377 8.62759L36.6873 9.00104ZM23.9466 14.0591C23.5324 14.0591 23.1966 14.3948 23.1966 14.8091C23.1966 15.2233 23.5324 15.5591 23.9466 15.5591V14.0591ZM28.5496 18.6621C28.1354 18.6621 27.7996 18.9979 27.7996 19.4121C27.7996 19.8263 28.1354 20.1621 28.5496 20.1621V18.6621ZM5.61525 8.21038H30.7666V6.71038H5.61525V8.21038ZM22.5406 24.4764H21.7662V25.9764H22.5406V24.4764ZM7.83069 13.4862L6.3446 7.28557L4.88591 7.63518L6.372 13.8358L7.83069 13.4862ZM6.34285 7.27846L4.7276 0.818082L3.2724 1.18192L4.88765 7.64229L6.34285 7.27846ZM21.7662 24.4764C18.9466 24.4764 16.8962 24.4752 15.2924 24.2888C13.7077 24.1047 12.6411 23.7469 11.7629 23.0864L10.8613 24.2852C12.0314 25.1653 13.39 25.5778 15.1193 25.7788C16.8295 25.9776 18.982 25.9764 21.7662 25.9764V24.4764ZM6.372 13.8358C7.02091 16.5433 7.52144 18.6368 8.11335 20.2536C8.71182 21.8884 9.42969 23.1134 10.5583 24.0462L11.5139 22.89C10.6669 22.1899 10.0704 21.2361 9.52192 19.7379C8.96689 18.2218 8.48786 16.2282 7.83069 13.4862L6.372 13.8358ZM11.7629 23.0864C11.6784 23.0228 11.5954 22.9573 11.5139 22.89L10.5583 24.0462C10.6574 24.1281 10.7585 24.2078 10.8613 24.2852L11.7629 23.0864ZM22.5406 25.9764C24.9493 25.9764 26.8115 25.9773 28.3034 25.8264C29.8103 25.674 31.0098 25.3616 32.0781 24.6927L31.2821 23.4214C30.4827 23.9218 29.5363 24.1941 28.1524 24.334C26.7534 24.4755 24.9798 24.4764 22.5406 24.4764V25.9764ZM32.4579 22.4941C32.1006 22.8448 31.7064 23.1557 31.2821 23.4214L32.0781 24.6927C32.5943 24.3695 33.074 23.9912 33.5087 23.5645L32.4579 22.4941ZM30.7666 8.21038C32.279 8.21038 33.3445 8.2117 34.1457 8.30947C34.9346 8.40573 35.3428 8.58352 35.6175 8.84274L36.647 7.75182C36.0349 7.17414 35.2532 6.93348 34.3274 6.82051C33.414 6.70905 32.2401 6.71038 30.7666 6.71038V8.21038ZM36.9799 14.5888C37.3233 13.1559 37.5982 12.0146 37.7027 11.1004C37.8087 10.1737 37.7568 9.35751 37.3377 8.62759L36.0369 9.3745C36.2249 9.70203 36.3027 10.1404 36.2124 10.93C36.1208 11.732 35.8737 12.7684 35.5212 14.2392L36.9799 14.5888ZM35.6175 8.84274C35.7826 8.99851 35.9239 9.17767 36.0369 9.3745L37.3377 8.62759C37.1516 8.30344 36.9189 8.00837 36.647 7.75182L35.6175 8.84274ZM34.687 18.6621H28.5496V20.1621H34.687V18.6621ZM36.1559 14.0591L23.9466 14.0591V15.5591L36.1559 15.5591V14.0591ZM35.5212 14.2392C35.4892 14.3728 35.4577 14.5044 35.4265 14.6341L36.8852 14.984C36.9163 14.8541 36.9479 14.7224 36.9799 14.5888L35.5212 14.2392ZM35.4265 14.6341C34.9708 16.5341 34.612 18.0033 34.2348 19.1838L35.6637 19.6404C36.0611 18.3967 36.4328 16.8698 36.8852 14.984L35.4265 14.6341ZM34.2348 19.1838C33.7268 20.7738 33.2098 21.7559 32.4579 22.4941L33.5087 23.5645C34.5134 22.5782 35.1244 21.3281 35.6637 19.6404L34.2348 19.1838ZM34.687 20.1621H34.9492V18.6621H34.687V20.1621Z" fill="#383838"/>
<path d="M18.536 30.0717C18.536 30.9637 17.8129 31.6868 16.9209 31.6868C16.0289 31.6868 15.3058 30.9637 15.3058 30.0717C15.3058 29.1797 16.0289 28.4566 16.9209 28.4566C17.8129 28.4566 18.536 29.1797 18.536 30.0717Z" fill="#383838"/>
<path d="M28.2266 30.0717C28.2266 30.9637 27.5035 31.6868 26.6115 31.6868C25.7195 31.6868 24.9964 30.9637 24.9964 30.0717C24.9964 29.1797 25.7195 28.4566 26.6115 28.4566C27.5035 28.4566 28.2266 29.1797 28.2266 30.0717Z" fill="#383838"/>
<circle cx="11.5" cy="28.5" r="11.5" fill="#72BF44"/>
<path d="M14.0117 26.9368C14.0117 27.4798 13.8535 27.9329 13.5371 28.2962C13.2207 28.6556 12.7754 28.8978 12.2012 29.0228V29.0696C12.8887 29.1556 13.4043 29.3704 13.748 29.7142C14.0918 30.054 14.2637 30.5071 14.2637 31.0735C14.2637 31.8978 13.9727 32.5345 13.3906 32.9837C12.8086 33.429 11.9805 33.6517 10.9062 33.6517C9.95703 33.6517 9.15625 33.4974 8.50391 33.1888V31.9642C8.86719 32.1439 9.25195 32.2825 9.6582 32.3802C10.0645 32.4778 10.4551 32.5267 10.8301 32.5267C11.4941 32.5267 11.9902 32.4036 12.3184 32.1575C12.6465 31.9114 12.8105 31.5306 12.8105 31.015C12.8105 30.5579 12.6289 30.222 12.2656 30.0071C11.9023 29.7923 11.332 29.6849 10.5547 29.6849H9.81055V28.5657H10.5664C11.9336 28.5657 12.6172 28.0931 12.6172 27.1478C12.6172 26.7806 12.498 26.4974 12.2598 26.2982C12.0215 26.0989 11.6699 25.9993 11.2051 25.9993C10.8809 25.9993 10.5684 26.0462 10.2676 26.14C9.9668 26.2298 9.61133 26.4075 9.20117 26.6732L8.52734 25.7122C9.3125 25.1341 10.2246 24.845 11.2637 24.845C12.127 24.845 12.8008 25.0306 13.2852 25.4017C13.7695 25.7728 14.0117 26.2845 14.0117 26.9368Z" fill="white"/>
</svg>
