<svg width="20" height="26" viewBox="0 0 20 26" fill="none" xmlns="http://www.w3.org/2000/svg">
<path d="M13.1284 22.038L12.5382 21.5752L13.1284 22.038ZM6.87161 22.038L6.28143 22.5009L6.87161 22.038ZM10 24.6312V23.8812V24.6312ZM18.25 10.6848C18.25 12.0905 17.5195 13.955 16.3858 15.9592C15.2688 17.934 13.8262 19.9328 12.5382 21.5752L13.7186 22.5009C15.0291 20.8297 16.5223 18.7647 17.6914 16.6977C18.844 14.6601 19.75 12.5047 19.75 10.6848H18.25ZM7.46178 21.5752C6.17382 19.9328 4.73122 17.934 3.61418 15.9592C2.48054 13.955 1.75 12.0905 1.75 10.6848H0.25C0.25 12.5047 1.15603 14.6601 2.30857 16.6977C3.47772 18.7647 4.97092 20.8297 6.28143 22.5009L7.46178 21.5752ZM1.75 10.6848C1.75 5.69749 5.4945 1.75 10 1.75V0.25C4.56438 0.25 0.25 4.97455 0.25 10.6848H1.75ZM10 1.75C14.5055 1.75 18.25 5.69749 18.25 10.6848H19.75C19.75 4.97455 15.4356 0.25 10 0.25V1.75ZM12.5382 21.5752C11.8439 22.4606 11.3799 23.0482 10.9621 23.4277C10.5764 23.7781 10.305 23.8812 10 23.8812V25.3812C10.7899 25.3812 11.4048 25.052 11.9707 24.538C12.5044 24.0532 13.0572 23.3443 13.7186 22.5009L12.5382 21.5752ZM6.28143 22.5009C6.94283 23.3443 7.49556 24.0532 8.02931 24.538C8.59517 25.052 9.21011 25.3812 10 25.3812V23.8812C9.695 23.8812 9.42358 23.7781 9.03788 23.4277C8.62008 23.0482 8.15606 22.4606 7.46178 21.5752L6.28143 22.5009ZM5.875 11.125C5.875 13.4032 7.72183 15.25 10 15.25V13.75C8.55025 13.75 7.375 12.5747 7.375 11.125H5.875ZM10 15.25C12.2782 15.25 14.125 13.4032 14.125 11.125H12.625C12.625 12.5747 11.4497 13.75 10 13.75V15.25ZM14.125 11.125C14.125 8.84683 12.2782 7 10 7V8.5C11.4497 8.5 12.625 9.67525 12.625 11.125H14.125ZM10 7C7.72183 7 5.875 8.84683 5.875 11.125H7.375C7.375 9.67525 8.55025 8.5 10 8.5V7Z" fill="#72BF44"/>
</svg>
