<svg width="144" height="24" viewBox="0 0 144 24" fill="none" xmlns="http://www.w3.org/2000/svg">
<path d="M92 2.25C88.9897 2.25 86.3088 3.62273 84.5205 5.76709L84.5103 5.7583C84.3155 5.99174 84.1336 6.23643 83.9609 6.48779C83.9596 6.48981 83.9579 6.49164 83.9565 6.49365C82.8819 8.06101 82.25 9.95909 82.25 12C82.25 17.3756 86.6244 21.75 92 21.75C92.6022 21.75 93.1906 21.6895 93.7637 21.5845C93.7656 21.5841 93.7676 21.5834 93.7695 21.583C94.095 21.5232 94.4168 21.4532 94.7305 21.3618L94.7261 21.3442C95.9281 20.9915 97.0379 20.4241 98 19.6699L96.0928 17.5371L93.9087 19.5029L89.9756 15.1362L90.9907 14.2222L88.3394 11.2778L89.4131 10.311L86.7456 7.35059L90.9688 3.44824L92.4204 4.98779L94.6294 3L95.7954 4.29492L96.7124 3.47021C95.3152 2.69696 93.7107 2.25 92 2.25ZM97.8945 4.59668L96.9482 5.44922L97.8008 6.39697L98.7471 5.54443L97.8945 4.59668ZM94.6455 4.83398L93.0679 6.25488L94.4888 7.83398L96.0664 6.41309L94.6455 4.83398ZM90.8735 5.50342L88.7422 7.42236L90.6611 9.55371L92.7925 7.63477L90.8735 5.50342ZM84.9966 7.64941L87.2935 10.1997L86.2212 11.1665L87.2246 12.2798L88.8711 14.1094L87.856 15.0234L92.5449 20.231C92.3648 20.2427 92.1833 20.25 92 20.25C87.4351 20.25 83.75 16.5649 83.75 12C83.75 10.3981 84.2096 8.91222 84.9966 7.64941ZM99.374 8.08301L98.4277 8.93555L99.2803 9.88184L100.227 9.0293L99.374 8.08301ZM96.2627 8.37598L94.6851 9.79688L96.106 11.376L97.6836 9.95508L96.2627 8.37598ZM92.5361 9.47754L90.4048 11.3965L92.3237 13.5278L94.4551 11.6089L92.5361 9.47754ZM100.852 11.5327L99.9043 12.3853L100.757 13.3315L101.705 12.479L100.852 11.5327ZM97.751 12.0732L96.1719 13.4941L97.5928 15.0732L99.1719 13.6523L97.751 12.0732ZM94.1899 13.4868L92.0586 15.4058L93.9775 17.5371L96.1089 15.6182L94.1899 13.4868ZM99.292 15.6035L97.7129 17.0244L99.1338 18.6035L100.713 17.1826L99.292 15.6035Z" fill="#383838"/>
<g clip-path="url(#clip0_44_94)">
<path d="M132 2C137.514 2 142 6.486 142 12C142 17.514 137.514 22 132 22C126.486 22 122 17.514 122 12C122 6.486 126.486 2 132 2ZM132 0C125.373 0 120 5.373 120 12C120 18.627 125.373 24 132 24C138.627 24 144 18.627 144 12C144 5.373 138.627 0 132 0ZM132 18V16.489H131.5V18H130.5V16.489H128.016L128.266 15H128.805C129.247 15 129.5 14.575 129.5 14.146V9.702C129.5 9.286 129.258 9 128.817 9H128V7.5H130.5V6H131.5V7.5H132V6H133V7.526C135.158 7.599 136.012 8.417 136.257 9.338C136.547 10.428 135.828 11.343 135.211 11.566C135.961 11.758 137 12.312 137 13.592C137 15.334 135.656 16.5 133 16.5V18H132ZM131.5 12.497V15C133.484 15 134.844 14.812 134.844 13.742C134.844 12.594 133.375 12.497 131.5 12.497ZM131.5 11.5C132.605 11.5 134.289 11.422 134.289 10.25C134.289 9.25 133.25 9 131.5 9V11.5Z" fill="#383838"/>
</g>
<path d="M61.5 6C61.776 6 62 6.224 62 6.5V17.5C62 17.776 61.776 18 61.5 18H42.5C42.224 18 42 17.776 42 17.5V6.5C42 6.224 42.224 6 42.5 6H61.5ZM64 6C64 4.896 63.104 4 62 4H42C40.895 4 40 4.896 40 6V18C40 19.104 40.895 20 42 20H62C63.104 20 64 19.104 64 18V6ZM57.164 11.188C57.164 12.949 55.737 14.376 53.976 14.376C52.215 14.376 50.788 12.949 50.788 11.188C50.788 9.427 52.216 8 53.977 8C55.738 8 57.164 9.427 57.164 11.188ZM50.434 11.188C50.434 10.101 50.927 9.127 51.7 8.477C51.213 8.175 50.639 8 50.023 8C48.262 8 46.835 9.427 46.835 11.188C46.835 12.949 48.262 14.376 50.023 14.376C50.638 14.376 51.213 14.201 51.7 13.899C50.927 13.249 50.434 12.275 50.434 11.188ZM48.712 15.979V15.448C48.712 15.248 48.585 15.113 48.379 15.112C48.271 15.11 48.159 15.144 48.082 15.263C48.024 15.169 47.931 15.112 47.802 15.112C47.712 15.112 47.623 15.139 47.554 15.238V15.134H47.37V15.98H47.556V15.511C47.556 15.364 47.637 15.286 47.763 15.286C47.885 15.286 47.947 15.366 47.947 15.509V15.98H48.133V15.511C48.133 15.364 48.218 15.286 48.34 15.286C48.466 15.286 48.526 15.366 48.526 15.509V15.98H48.712V15.979ZM51.464 15.132H51.163V14.875H50.977V15.132H50.805V15.3H50.977V15.686C50.977 15.883 51.053 15.999 51.271 15.999C51.351 15.999 51.443 15.974 51.501 15.933L51.448 15.775L51.285 15.823C51.193 15.823 51.163 15.766 51.163 15.681V15.299H51.464V15.132ZM53.034 15.111C52.928 15.111 52.859 15.161 52.811 15.235V15.132H52.629V15.978H52.813V15.503C52.813 15.363 52.873 15.285 52.994 15.285L53.109 15.306L53.166 15.132L53.034 15.111ZM50.66 15.2C50.571 15.142 50.449 15.111 50.315 15.111C50.101 15.111 49.963 15.214 49.963 15.382C49.963 15.52 50.066 15.605 50.255 15.632L50.342 15.644C50.443 15.658 50.491 15.685 50.491 15.733C50.491 15.799 50.424 15.836 50.298 15.836C50.171 15.836 50.078 15.795 50.016 15.747L49.928 15.89C50.029 15.964 50.156 16 50.295 16C50.539 16 50.681 15.885 50.681 15.724C50.681 15.575 50.569 15.497 50.385 15.471L50.298 15.459C50.218 15.448 50.155 15.432 50.155 15.376C50.155 15.314 50.215 15.277 50.316 15.277C50.424 15.277 50.528 15.318 50.58 15.35L50.66 15.2ZM55.593 15.111C55.487 15.111 55.418 15.161 55.37 15.235V15.132H55.188V15.978H55.372V15.503C55.372 15.363 55.432 15.285 55.553 15.285L55.668 15.306L55.725 15.132L55.593 15.111ZM53.22 15.556C53.22 15.813 53.399 16 53.672 16C53.799 16 53.884 15.972 53.977 15.899L53.888 15.75C53.819 15.8 53.746 15.826 53.667 15.826C53.52 15.824 53.412 15.718 53.412 15.555C53.412 15.392 53.52 15.286 53.667 15.284C53.747 15.284 53.819 15.311 53.888 15.36L53.977 15.211C53.885 15.138 53.8 15.11 53.672 15.11C53.399 15.111 53.22 15.299 53.22 15.556ZM54.945 15.556V15.133H54.761V15.236C54.703 15.16 54.614 15.112 54.494 15.112C54.257 15.112 54.071 15.298 54.071 15.556C54.071 15.815 54.257 16 54.494 16C54.614 16 54.703 15.952 54.761 15.876V15.979H54.945V15.556ZM54.26 15.556C54.26 15.407 54.357 15.285 54.517 15.285C54.669 15.285 54.772 15.402 54.772 15.556C54.772 15.71 54.669 15.827 54.517 15.827C54.357 15.826 54.26 15.704 54.26 15.556ZM52.038 15.111C51.79 15.111 51.617 15.292 51.617 15.555C51.617 15.824 51.798 15.999 52.051 15.999C52.178 15.999 52.295 15.967 52.398 15.88L52.308 15.744C52.237 15.801 52.147 15.833 52.062 15.833C51.943 15.833 51.835 15.778 51.809 15.626H52.438L52.442 15.555C52.438 15.292 52.275 15.111 52.038 15.111ZM52.034 15.276C52.153 15.276 52.229 15.35 52.248 15.481H51.809C51.829 15.359 51.903 15.276 52.034 15.276ZM56.654 15.556V14.793H56.47V15.236C56.412 15.16 56.323 15.112 56.203 15.112C55.966 15.112 55.78 15.298 55.78 15.556C55.78 15.815 55.966 16 56.203 16C56.323 16 56.412 15.952 56.47 15.876V15.979H56.654V15.556ZM55.969 15.556C55.969 15.407 56.066 15.285 56.226 15.285C56.378 15.285 56.481 15.402 56.481 15.556C56.481 15.71 56.378 15.827 56.226 15.827C56.066 15.826 55.969 15.704 55.969 15.556ZM49.75 15.556V15.133H49.565V15.236C49.507 15.16 49.418 15.112 49.298 15.112C49.061 15.112 48.875 15.298 48.875 15.556C48.875 15.814 49.061 16 49.298 16C49.418 16 49.507 15.952 49.565 15.876V15.979H49.75V15.556ZM49.064 15.556C49.064 15.407 49.161 15.285 49.321 15.285C49.473 15.285 49.576 15.402 49.576 15.556C49.576 15.71 49.473 15.827 49.321 15.827C49.162 15.826 49.064 15.704 49.064 15.556Z" fill="#383838"/>
<path d="M21.5 6C21.776 6 22 6.224 22 6.5V17.5C22 17.776 21.776 18 21.5 18H2.5C2.224 18 2 17.776 2 17.5V6.5C2 6.224 2.224 6 2.5 6H21.5ZM24 6C24 4.896 23.104 4 22 4H2C0.895 4 0 4.896 0 6V18C0 19.104 0.895 20 2 20H22C23.104 20 24 19.104 24 18V6ZM10.447 9.63H11.742L10.932 14.383H9.637L10.447 9.63ZM14.354 11.538C13.901 11.318 13.624 11.171 13.627 10.949C13.627 10.751 13.862 10.54 14.369 10.54C14.793 10.533 15.099 10.626 15.339 10.722L15.455 10.777L15.631 9.747C15.374 9.651 14.972 9.547 14.47 9.547C13.19 9.547 12.288 10.192 12.281 11.115C12.274 11.798 12.925 12.179 13.416 12.406C13.92 12.639 14.09 12.787 14.087 12.996C14.084 13.314 13.684 13.46 13.312 13.46C12.794 13.46 12.518 13.388 12.093 13.211L11.926 13.135L11.744 14.199C12.047 14.332 12.606 14.447 13.187 14.453C14.549 14.453 15.433 13.816 15.443 12.829C15.446 12.288 15.101 11.877 14.354 11.538ZM20 14.384H18.798L18.64 13.672L16.981 13.67L16.708 14.384H15.348L17.272 10.029C17.408 9.72 17.64 9.635 17.95 9.635H18.951L20 14.384ZM18.429 12.698L18.129 11.326L18.041 10.916L17.869 11.37L17.353 12.698H18.429ZM8.55 9.633L7.282 12.874L7.147 12.215L6.693 10.031C6.614 9.731 6.387 9.641 6.105 9.63H4.016L4 9.729C4.508 9.852 4.962 10.029 5.361 10.25L6.513 14.378L7.884 14.376L9.923 9.633H8.55Z" fill="#383838"/>
<defs>
<clipPath id="clip0_44_94">
<rect width="24" height="24" fill="white" transform="translate(120)"/>
</clipPath>
</defs>
</svg>
