<svg width="116" height="20" viewBox="0 0 116 20" fill="none" xmlns="http://www.w3.org/2000/svg">
<path d="M9.52447 3.08156C9.67415 2.6209 10.3259 2.6209 10.4755 3.08156L11.5451 6.37336C11.7459 6.99139 12.3218 7.40983 12.9717 7.40983H16.4329C16.9172 7.40983 17.1186 8.02964 16.7268 8.31434L13.9266 10.3488C13.4009 10.7307 13.1809 11.4078 13.3817 12.0258L14.4513 15.3176C14.6009 15.7783 14.0737 16.1613 13.6818 15.8766L10.8817 13.8422C10.3559 13.4602 9.64405 13.4602 9.11832 13.8422L6.31815 15.8766C5.9263 16.1613 5.39906 15.7783 5.54873 15.3176L6.6183 12.0258C6.81911 11.4078 6.59913 10.7307 6.07339 10.3488L3.27323 8.31434C2.88137 8.02964 3.08276 7.40983 3.56712 7.40983H7.02832C7.67816 7.40983 8.25409 6.99139 8.4549 6.37336L9.52447 3.08156Z" stroke="#BDBDBD"/>
<path d="M33.5245 3.08156C33.6741 2.6209 34.3259 2.6209 34.4755 3.08156L35.5451 6.37336C35.7459 6.99139 36.3218 7.40983 36.9717 7.40983H40.4329C40.9172 7.40983 41.1186 8.02964 40.7268 8.31434L37.9266 10.3488C37.4009 10.7307 37.1809 11.4078 37.3817 12.0258L38.4513 15.3176C38.6009 15.7783 38.0737 16.1613 37.6818 15.8766L34.8817 13.8422C34.3559 13.4602 33.6441 13.4602 33.1183 13.8422L30.3182 15.8766C29.9263 16.1613 29.3991 15.7783 29.5487 15.3176L30.6183 12.0258C30.8191 11.4078 30.5991 10.7307 30.0734 10.3488L27.2732 8.31434C26.8814 8.02964 27.0828 7.40983 27.5671 7.40983H31.0283C31.6782 7.40983 32.2541 6.99139 32.4549 6.37336L33.5245 3.08156Z" stroke="#BDBDBD"/>
<path d="M57.5245 3.08156C57.6741 2.6209 58.3259 2.6209 58.4755 3.08156L59.5451 6.37336C59.7459 6.99139 60.3218 7.40983 60.9717 7.40983H64.4329C64.9172 7.40983 65.1186 8.02964 64.7268 8.31434L61.9266 10.3488C61.4009 10.7307 61.1809 11.4078 61.3817 12.0258L62.4513 15.3176C62.6009 15.7783 62.0737 16.1613 61.6818 15.8766L58.8817 13.8422C58.3559 13.4602 57.6441 13.4602 57.1183 13.8422L54.3182 15.8766C53.9263 16.1613 53.3991 15.7783 53.5487 15.3176L54.6183 12.0258C54.8191 11.4078 54.5991 10.7307 54.0734 10.3488L51.2732 8.31434C50.8814 8.02964 51.0828 7.40983 51.5671 7.40983H55.0283C55.6782 7.40983 56.2541 6.99139 56.4549 6.37336L57.5245 3.08156Z" stroke="#BDBDBD"/>
<path d="M81.5245 3.08156C81.6741 2.6209 82.3259 2.6209 82.4755 3.08156L83.5451 6.37336C83.7459 6.99139 84.3218 7.40983 84.9717 7.40983H88.4329C88.9172 7.40983 89.1186 8.02964 88.7268 8.31434L85.9266 10.3488C85.4009 10.7307 85.1809 11.4078 85.3817 12.0258L86.4513 15.3176C86.6009 15.7783 86.0737 16.1613 85.6818 15.8766L82.8817 13.8422C82.3559 13.4602 81.6441 13.4602 81.1183 13.8422L78.3182 15.8766C77.9263 16.1613 77.3991 15.7783 77.5487 15.3176L78.6183 12.0258C78.8191 11.4078 78.5991 10.7307 78.0734 10.3488L75.2732 8.31434C74.8814 8.02964 75.0828 7.40983 75.5671 7.40983H79.0283C79.6782 7.40983 80.2541 6.99139 80.4549 6.37336L81.5245 3.08156Z" stroke="#BDBDBD"/>
<path d="M105.524 3.08156C105.674 2.6209 106.326 2.6209 106.476 3.08156L107.545 6.37336C107.746 6.99139 108.322 7.40983 108.972 7.40983H112.433C112.917 7.40983 113.119 8.02964 112.727 8.31434L109.927 10.3488C109.401 10.7307 109.181 11.4078 109.382 12.0258L110.451 15.3176C110.601 15.7783 110.074 16.1613 109.682 15.8766L106.882 13.8422C106.356 13.4602 105.644 13.4602 105.118 13.8422L102.318 15.8766C101.926 16.1613 101.399 15.7783 101.549 15.3176L102.618 12.0258C102.819 11.4078 102.599 10.7307 102.073 10.3488L99.2732 8.31434C98.8814 8.02964 99.0828 7.40983 99.5671 7.40983H103.028C103.678 7.40983 104.254 6.99139 104.455 6.37336L105.524 3.08156Z" stroke="#BDBDBD"/>
</svg>
