<svg width="96" height="36" viewBox="0 0 96 36" fill="none" xmlns="http://www.w3.org/2000/svg">
<path d="M64.5 18C64.5 18.8284 65.1716 19.5 66 19.5C66.8284 19.5 67.5 18.8284 67.5 18C67.5 17.1716 66.8284 16.5 66 16.5C65.1716 16.5 64.5 17.1716 64.5 18ZM64.5 24C64.5 24.8284 65.1716 25.5 66 25.5C66.8284 25.5 67.5 24.8284 67.5 24C67.5 23.1716 66.8284 22.5 66 22.5C65.1716 22.5 64.5 23.1716 64.5 24ZM64.5 12C64.5 12.8284 65.1716 13.5 66 13.5C66.8284 13.5 67.5 12.8284 67.5 12C67.5 11.1716 66.8284 10.5 66 10.5C65.1716 10.5 64.5 11.1716 64.5 12ZM70.5 18C70.5 18.8284 71.1716 19.5 72 19.5H90C90.8284 19.5 91.5 18.8284 91.5 18C91.5 17.1716 90.8284 16.5 90 16.5H72C71.1716 16.5 70.5 17.1716 70.5 18ZM70.5 24C70.5 24.8284 71.1716 25.5 72 25.5H90C90.8284 25.5 91.5 24.8284 91.5 24C91.5 23.1716 90.8284 22.5 90 22.5H72C71.1716 22.5 70.5 23.1716 70.5 24ZM72 10.5C71.1716 10.5 70.5 11.1716 70.5 12C70.5 12.8284 71.1716 13.5 72 13.5H90C90.8284 13.5 91.5 12.8284 91.5 12C91.5 11.1716 90.8284 10.5 90 10.5H72Z" fill="#B7B7B7"/>
<path d="M15.7778 8H8V15.7778H15.7778V8Z" stroke="#72BF44" stroke-width="2" stroke-linecap="round" stroke-linejoin="round"/>
<path d="M28.0004 8H20.2227V15.7778H28.0004V8Z" stroke="#72BF44" stroke-width="2" stroke-linecap="round" stroke-linejoin="round"/>
<path d="M28.0004 20.2222H20.2227V27.9999H28.0004V20.2222Z" stroke="#72BF44" stroke-width="2" stroke-linecap="round" stroke-linejoin="round"/>
<path d="M15.7778 20.2222H8V27.9999H15.7778V20.2222Z" stroke="#72BF44" stroke-width="2" stroke-linecap="round" stroke-linejoin="round"/>
</svg>
