<svg width="240" height="44" viewBox="0 0 240 44" fill="none" xmlns="http://www.w3.org/2000/svg">
<rect width="240" height="44" rx="16" fill="#F5F5F5"/>
<path d="M214.714 19.2917L211 22.9833L207.286 19.2187C207 18.9271 206.5 18.9271 206.214 19.2187C205.929 19.5104 205.929 20.0208 206.214 20.3125L210.429 24.6146C210.571 24.7604 210.786 24.8333 211 24.8333C211.214 24.8333 211.429 24.7604 211.571 24.6875L215.786 20.3854C216.071 20.0937 216.071 19.5833 215.786 19.2917C215.5 19 215 19 214.714 19.2917Z" fill="#6D6D6D"/>
<path fill-rule="evenodd" clip-rule="evenodd" d="M114.643 17C114.288 17 114 17.2878 114 17.6429C114 17.9979 114.288 18.2857 114.643 18.2857H126.214C126.569 18.2857 126.857 17.9979 126.857 17.6429C126.857 17.2878 126.569 17 126.214 17H114.643ZM116.572 21.5C116.572 21.145 116.86 20.8572 117.215 20.8572H126.215C126.57 20.8572 126.858 21.145 126.858 21.5C126.858 21.8551 126.57 22.1429 126.215 22.1429H117.215C116.86 22.1429 116.572 21.8551 116.572 21.5ZM119.143 25.3572C119.143 25.0022 119.431 24.7144 119.786 24.7144H126.214C126.569 24.7144 126.857 25.0022 126.857 25.3572C126.857 25.7123 126.569 26.0001 126.214 26.0001H119.786C119.431 26.0001 119.143 25.7123 119.143 25.3572Z" fill="#383838"/>
<path d="M26.3379 27H25.2031V19.5078H31.4922V27H30.3438V20.4922H26.3379V27ZM40.3652 23.2471C40.3652 24.4684 40.0576 25.4232 39.4424 26.1113C38.8271 26.7949 37.9772 27.1367 36.8926 27.1367C36.2227 27.1367 35.6279 26.9795 35.1084 26.665C34.5889 26.3506 34.1878 25.8994 33.9053 25.3115C33.6227 24.7236 33.4814 24.0355 33.4814 23.2471C33.4814 22.0257 33.7868 21.0755 34.3975 20.3965C35.0081 19.7129 35.8558 19.3711 36.9404 19.3711C37.9886 19.3711 38.8203 19.7197 39.4355 20.417C40.0553 21.1143 40.3652 22.0576 40.3652 23.2471ZM34.6572 23.2471C34.6572 24.2041 34.8486 24.9333 35.2314 25.4346C35.6143 25.9359 36.1771 26.1865 36.9199 26.1865C37.6628 26.1865 38.2256 25.9382 38.6084 25.4414C38.9958 24.9401 39.1895 24.2087 39.1895 23.2471C39.1895 22.2946 38.9958 21.5723 38.6084 21.0801C38.2256 20.5833 37.6582 20.335 36.9062 20.335C36.1634 20.335 35.6029 20.5788 35.2246 21.0664C34.8464 21.554 34.6572 22.2809 34.6572 23.2471ZM53.3057 29.5908H52.1709V27H45.998V19.5078H47.1328V26.0225H51.1113V19.5078H52.2461V26.0225H53.3057V29.5908ZM57.9268 27.1367C56.8193 27.1367 55.9443 26.7995 55.3018 26.125C54.6637 25.4505 54.3447 24.514 54.3447 23.3154C54.3447 22.1077 54.641 21.1484 55.2334 20.4375C55.8304 19.7266 56.6302 19.3711 57.6328 19.3711C58.5716 19.3711 59.3145 19.681 59.8613 20.3008C60.4082 20.916 60.6816 21.7295 60.6816 22.7412V23.459H55.5205C55.5433 24.3385 55.7643 25.0062 56.1836 25.4619C56.6074 25.9176 57.2021 26.1455 57.9678 26.1455C58.7744 26.1455 59.5719 25.9769 60.3604 25.6396V26.6514C59.9593 26.8245 59.5788 26.9476 59.2188 27.0205C58.8633 27.098 58.4326 27.1367 57.9268 27.1367ZM57.6191 20.3213C57.0176 20.3213 56.5368 20.5173 56.1768 20.9092C55.8213 21.3011 55.6117 21.8434 55.5479 22.5361H59.4648C59.4648 21.8206 59.3053 21.2738 58.9863 20.8955C58.6673 20.5127 58.2116 20.3213 57.6191 20.3213ZM63.7578 19.5078V22.6455H67.9551V19.5078H69.0898V27H67.9551V23.623H63.7578V27H62.623V19.5078H63.7578ZM74.6611 27.1367C73.5537 27.1367 72.6787 26.7995 72.0361 26.125C71.3981 25.4505 71.0791 24.514 71.0791 23.3154C71.0791 22.1077 71.3753 21.1484 71.9678 20.4375C72.5648 19.7266 73.3646 19.3711 74.3672 19.3711C75.306 19.3711 76.0488 19.681 76.5957 20.3008C77.1426 20.916 77.416 21.7295 77.416 22.7412V23.459H72.2549C72.2777 24.3385 72.4987 25.0062 72.918 25.4619C73.3418 25.9176 73.9365 26.1455 74.7021 26.1455C75.5088 26.1455 76.3063 25.9769 77.0947 25.6396V26.6514C76.6937 26.8245 76.3132 26.9476 75.9531 27.0205C75.5977 27.098 75.167 27.1367 74.6611 27.1367ZM74.3535 20.3213C73.752 20.3213 73.2712 20.5173 72.9111 20.9092C72.5557 21.3011 72.346 21.8434 72.2822 22.5361H76.1992C76.1992 21.8206 76.0397 21.2738 75.7207 20.8955C75.4017 20.5127 74.946 20.3213 74.3535 20.3213Z" fill="#383838"/>
</svg>
